:version 1.10
:name ASF
:units
  mass 1
  length 1
  angle deg
:documentation
  ASF file generated by Kaydara
:root
  axis xyz
  order  tx ty tz rx ry rz
  position 0 0 0
  orientation 0 0 0
:bonedata
  begin
    id 1
    name SpineDummy
    direction 0.999998 -0.00179978 1.38929e-006
    length 3.60008
    axis 0 0 0 xyz
  end
  begin
    id 2
    name Spine
    direction 0.964365 0.262802 0.0305839
    length 8.13928
    axis 1.33928 -1.75354 15.2838 xyz
    dof rx ry rz
  end
  begin
    id 3
    name Spine1
    direction 0.811168 0.572065 0.12144
    length 7.14954
    axis 2.2224 -6.9761 35.2157 xyz
    dof rx ry rz
  end
  begin
    id 4
    name Neck
    direction 0 0 0
    length 0
    axis 2.2224 -6.9761 35.2157 xyz
    dof rx ry rz
  end
  begin
    id 5
    name HeadDummy
    direction 0.810939 0.572387 0.121455
    length 3.55534
    axis 2.2224 -6.9761 35.2157 xyz
  end
  begin
    id 6
    name Head
    direction 0.998226 -0.000232542 0.0595419
    length 7.35666
    axis -3.03688 -3.41352 -0.0133467 xyz
    dof rx ry rz
  end
  begin
    id 7
    name R_ClavicleDummy
    direction 0.531669 -0.194489 -0.824319
    length 2.49392
    axis 2.2224 -6.9761 35.2157 xyz
  end
  begin
    id 8
    name R_Clavicle
    direction -0.155119 0.0480802 -0.986725
    length 4.485
    axis -54.2764 80.6538 162.779 xyz
    dof rx ry rz
  end
  begin
    id 9
    name R_UpperArm
    direction -0.955567 0.200068 -0.216484
    length 10.1122
    axis -72.9943 12.5026 168.175 xyz
    dof rx ry rz
  end
  begin
    id 10
    name R_Forearm
    direction -0.61433 0.385743 0.688332
    length 9.39148
    axis -117.015 -43.4982 147.875 xyz
    dof rx ry rz
  end
  begin
    id 11
    name R_Hand
    direction -0.699429 0.0170333 0.714499
    length 3.66324
    axis -45.0303 -36.7097 175.478 xyz
    dof rx ry rz
  end
  begin
    id 12
    name L_ClavicleDummy
    direction 0.40287 -0.36502 0.839319
    length 2.49392
    axis 2.2224 -6.9761 35.2157 xyz
  end
  begin
    id 13
    name L_Clavicle
    direction -0.231271 -0.0726419 0.970174
    length 4.485
    axis 18.4357 -75.9711 -162.563 xyz
    dof rx ry rz
  end
  begin
    id 14
    name L_UpperArm
    direction -0.917494 0.144359 0.370629
    length 10.1122
    axis 56.0417 -21.7544 171.058 xyz
    dof rx ry rz
  end
  begin
    id 15
    name L_Forearm
    direction -0.496786 0.615074 -0.612281
    length 9.39148
    axis 89.8094 37.7546 128.927 xyz
    dof rx ry rz
  end
  begin
    id 16
    name L_Hand
    direction -0.409932 0.64962 -0.640274
    length 3.66324
    axis -0.424369 32.133 128.52 xyz
    dof rx ry rz
  end
  begin
    id 17
    name L_ThighDummy
    direction -1.84081e-006 1.87549e-006 1
    length 3.13049
    axis 0 0 0 xyz
  end
  begin
    id 18
    name L_Thigh
    direction -0.947739 0.307978 0.083308
    length 17.9961
    axis 173.219 -4.77873 161.998 xyz
    dof rx ry rz
  end
  begin
    id 19
    name L_Calf
    direction -0.728814 -0.684427 0.0197583
    length 13.3367
    axis 167.331 -1.13214 -136.799 xyz
    dof rx ry rz
  end
  begin
    id 20
    name L_Foot
    direction -0.9028 0.418719 0.0981191
    length 5.8674
    axis 163.436 11.5135 -155.37 xyz
    dof rx ry rz
  end
  begin
    id 21
    name L_Toe0
    direction -0.35341 0.886259 0.299411
    length 4.75286
    axis 169.316 -17.4222 111.74 xyz
    dof rx ry rz
  end
  begin
    id 22
    name R_ThighDummy
    direction 9.32778e-007 -8.82053e-007 -1
    length 3.13049
    axis 0 0 0 xyz
  end
  begin
    id 23
    name R_Thigh
    direction -0.925064 0.37528 -0.0585023
    length 17.9961
    axis -178.698 3.35385 157.919 xyz
    dof rx ry rz
  end
  begin
    id 24
    name R_Calf
    direction -0.68969 -0.718776 -0.0876886
    length 13.3367
    axis -160.504 5.03065 -133.817 xyz
    dof rx ry rz
  end
  begin
    id 25
    name R_Foot
    direction -0.857405 0.418858 -0.299022
    length 5.8674
    axis -161.328 4.38911 -154.413 xyz
    dof rx ry rz
  end
  begin
    id 26
    name R_Toe0
    direction -0.100745 0.952789 -0.286433
    length 4.75286
    axis 171.683 16.6445 96.0359 xyz
    dof rx ry rz
  end
:hierarchy
  begin
    root SpineDummy L_ThighDummy R_ThighDummy
    SpineDummy Spine
    Spine Spine1
    Spine1 Neck
    Neck HeadDummy R_ClavicleDummy L_ClavicleDummy
    HeadDummy Head
    R_ClavicleDummy R_Clavicle
    R_Clavicle R_UpperArm
    R_UpperArm R_Forearm
    R_Forearm R_Hand
    L_ClavicleDummy L_Clavicle
    L_Clavicle L_UpperArm
    L_UpperArm L_Forearm
    L_Forearm L_Hand
    L_ThighDummy L_Thigh
    L_Thigh L_Calf
    L_Calf L_Foot
    L_Foot L_Toe0
    R_ThighDummy R_Thigh
    R_Thigh R_Calf
    R_Calf R_Foot
    R_Foot R_Toe0
  end

:SAMPLES-PER-SECOND 30
:FULLY-SPECIFIED
:DEGREES
64
root  -0.242625 32.0572 -28.8215 91.4905 7.70544 94.7452
Spine  -8.42936 -10.9713 -5.08288
Spine1  -6.58211 26.9662 2.14919
Neck  3.97569e-016 0 -2.38542e-015
Head  29.7446 -13.0959 14.2192
R_Clavicle  0.465465 -13.0827 2.66533
R_UpperArm  32.3834 4.04302 50.6417
R_Forearm  35.7997 -17.5881 15.2367
R_Hand  -0.50023 1.74359 -10.7359
L_Clavicle  -0.396566 14.2411 -0.269342
L_UpperArm  -16.9931 -13.8268 23.7887
L_Forearm  16.3812 42.241 42.1956
L_Hand  -0.0470505 -2.37697 -1.72853
L_Thigh  -7.18763 -1.03843 -29.1706
L_Calf  -3.09401 -3.68939 27.8445
L_Foot  4.15228 4.70192 11.9744
L_Toe0  -0.180385 0.0122084 0.648799
R_Thigh  -5.14913 -7.81025 -1.18837
R_Calf  -4.11685 9.72977 35.9647
R_Foot  2.36237 3.7136 -16.6035
R_Toe0  -1.78853 -0.272788 -17.3235
65
root  -0.641855 31.5587 -28.1391 88.9923 7.5804 94.156
Spine  -7.51235 -10.2798 -3.16502
Spine1  -5.10936 27.4753 3.80949
Neck  3.97569e-016 0 -2.38542e-015
Head  31.7995 -13.3619 9.68589
R_Clavicle  0.426265 -15.7904 2.2225
R_UpperArm  33.0539 7.04891 45.5229
R_Forearm  45.1098 -20.009 17.5817
R_Hand  -0.595531 0.344851 -10.2614
L_Clavicle  -0.462154 16.2729 -0.804125
L_UpperArm  -22.0963 -10.1987 26.5262
L_Forearm  14.9199 41.1441 43.4616
L_Hand  -0.0847751 -3.8036 -6.48534
L_Thigh  -5.19923 -1.04637 -26.5538
L_Calf  -6.60842 -2.63016 19.3238
L_Foot  2.8632 0.9609 11.998
L_Toe0  -0.530653 -0.0288174 5.81463
R_Thigh  -8.5451 -5.49512 1.6134
R_Calf  -4.67707 8.68414 28.0282
R_Foot  2.08424 3.93641 -12.4116
R_Toe0  -1.78853 -0.272788 -17.3235
66
root  -1.09538 31.1388 -27.375 87.8188 6.88514 93.0415
Spine  -6.80723 -7.766 -2.94619
Spine1  -4.07116 25.9024 6.08408
Neck  3.97569e-016 0 -2.38542e-015
Head  32.5711 -13.0233 7.02265
R_Clavicle  0.394126 -18.3205 1.35933
R_UpperArm  34.0877 7.22236 40.0711
R_Forearm  52.7284 -18.9458 16.5432
R_Hand  -0.769043 -1.60025 -10.0977
L_Clavicle  -0.496748 17.0023 -1.61181
L_UpperArm  -22.5106 -5.9206 28.088
L_Forearm  10.2097 40.5947 43.5322
L_Hand  -0.132439 -3.53079 -7.77316
L_Thigh  -3.97824 0.238236 -21.2351
L_Calf  -7.64116 -1.06321 7.52037
L_Foot  0.838172 -1.44991 6.33388
L_Toe0  -2.65699 0.863735 17.0457
R_Thigh  -6.79035 -3.62019 3.71114
R_Calf  -4.37301 6.93791 22.2904
R_Foot  1.76453 3.90963 -8.18972
R_Toe0  -1.78853 -0.272788 -17.3235
67
root  -1.58029 30.7589 -26.5222 87.6916 6.69808 91.0083
Spine  -6.0438 -3.66742 -2.57646
Spine1  -3.53729 23.5065 7.06184
Neck  3.97569e-016 0 -2.38542e-015
Head  31.9119 -12.6159 6.35718
R_Clavicle  0.39516 -19.8417 0.905203
R_UpperArm  33.6906 5.44561 34.7744
R_Forearm  56.7221 -13.7816 11.7312
R_Hand  -0.912393 -3.31586 -9.42914
L_Clavicle  -0.525615 17.4956 -2.12409
L_UpperArm  -18.7955 -1.51389 29.1125
L_Forearm  5.85753 39.7134 41.8057
L_Hand  -0.154596 -2.09993 -5.11384
L_Thigh  -3.4237 3.04923 -15.2307
L_Calf  -8.59898 0.594176 -4.67591
L_Foot  -0.165087 2.45368 -3.2081
L_Toe0  -9.5471 4.49446 23.7018
R_Thigh  -3.15821 -1.72206 4.181
R_Calf  -3.55977 5.5822 17.8874
R_Foot  1.43206 3.71075 -4.48297
R_Toe0  -1.78853 -0.272788 -17.3235
68
root  -2.09997 30.3408 -25.5539 86.9368 7.83705 88.7569
Spine  -4.59692 0.0554329 -1.25809
Spine1  -2.47221 20.9958 7.32585
Neck  3.97569e-016 0 -2.38542e-015
Head  30.7204 -12.4182 5.83078
R_Clavicle  0.398859 -20.3173 0.817376
R_UpperArm  31.5506 4.93719 28.9202
R_Forearm  57.1417 -6.5866 5.47793
R_Hand  -0.955351 -3.96343 -8.50392
L_Clavicle  -0.568906 18.3864 -2.10536
L_UpperArm  -13.5057 3.59884 29.8892
L_Forearm  2.75705 36.8019 39.3396
L_Hand  -0.0887164 -0.343284 -1.97775
L_Thigh  -3.99789 6.46403 -10.8965
L_Calf  -10.0464 1.98908 -15.0645
L_Foot  -0.383394 9.21708 -9.65391
L_Toe0  -15.8537 5.71683 13.8912
R_Thigh  0.0324566 0.386444 3.00526
R_Calf  -5.10009 4.19653 13.5268
R_Foot  0.865288 3.01793 0.0840141
R_Toe0  -1.78853 -0.272788 -17.3235
69
root  -2.59356 30.0993 -24.4566 85.4896 9.52999 87.1909
Spine  -2.73856 2.23343 -0.498866
Spine1  -0.730039 18.3851 8.54018
Neck  3.97569e-016 0 -2.38542e-015
Head  29.3106 -12.2778 4.88854
R_Clavicle  0.378093 -19.209 0.542343
R_UpperArm  29.1491 6.51356 21.3712
R_Forearm  55.0011 -0.315143 0.234591
R_Hand  -0.913033 -3.70696 -8.01503
L_Clavicle  -0.603195 19.2309 -1.87
L_UpperArm  -9.98278 9.41555 30.2427
L_Forearm  1.89044 33.0673 37.735
L_Hand  -0.0264556 1.04198 -0.42541
L_Thigh  -4.78789 9.43897 -8.56495
L_Calf  -9.39831 2.8753 -21.8724
L_Foot  -0.185776 10.5873 -9.58259
L_Toe0  -17.0956 3.37661 3.52384
R_Thigh  1.56155 2.13238 0.420478
R_Calf  -7.24098 3.28351 10.633
R_Foot  0.160265 1.97106 4.23123
R_Toe0  -1.78853 -0.272788 -17.3235
70
root  -2.96848 30.1749 -23.2655 85.3985 10.7159 86.7505
Spine  -1.41962 3.4762 -1.37172
Spine1  0.560921 15.5193 9.97534
Neck  3.97569e-016 0 -2.38542e-015
Head  26.7767 -11.8526 5.29744
R_Clavicle  0.323526 -16.5067 0.274472
R_UpperArm  27.5276 8.43976 12.9311
R_Forearm  51.1082 3.38595 -2.84462
R_Hand  -0.826237 -2.85024 -8.33844
L_Clavicle  -0.624261 19.7617 -1.75623
L_UpperArm  -8.36538 14.3991 30.4109
L_Forearm  3.00805 31.1025 37.0612
L_Hand  -0.00172118 1.91423 0.0618529
L_Thigh  -4.07571 10.3692 -6.66386
L_Calf  -6.72093 3.17778 -24.2721
L_Foot  0.733157 9.36756 -5.55687
L_Toe0  -8.76657 0.86144 -0.771114
R_Thigh  2.51459 2.62137 -3.02063
R_Calf  -7.41606 3.11511 10.0717
R_Foot  -0.219807 1.69862 7.08523
R_Toe0  -1.78853 -0.272788 -17.3235
71
root  -3.19702 30.5265 -22.0442 87.5197 11.0885 87.1734
Spine  -0.664622 4.93876 -2.9349
Spine1  0.885877 12.0467 9.4598
Neck  3.97569e-016 0 -2.38542e-015
Head  22.1377 -10.9214 8.39012
R_Clavicle  0.311897 -13.8966 0.706366
R_UpperArm  26.5262 10.0595 6.26794
R_Forearm  45.7096 4.47742 -3.75576
R_Hand  -0.70593 -1.38183 -9.21738
L_Clavicle  -0.644389 20.1205 -1.84961
L_UpperArm  -6.68304 17.5026 31.1762
L_Forearm  4.50646 31.2639 36.994
L_Hand  0.0405576 2.52499 0.686185
L_Thigh  -1.97285 9.24406 -4.0214
L_Calf  -4.72281 2.95736 -22.5551
L_Foot  1.557 9.11769 -2.42041
L_Toe0  -5.41572 0.359527 -2.72507
R_Thigh  3.69453 2.0643 -7.00157
R_Calf  -5.91625 3.66663 11.8339
R_Foot  -0.125547 2.40304 8.69449
R_Toe0  -1.78853 -0.272788 -17.3235
72
root  -3.34127 31.088 -20.8353 90.3243 10.7199 88.0023
Spine  0.347875 6.886 -4.14477
Spine1  1.00852 7.36709 6.77523
Neck  3.97569e-016 0 -2.38542e-015
Head  15.6612 -9.44147 13.1139
R_Clavicle  0.38281 -12.3622 1.70993
R_UpperArm  25.8715 11.8962 2.92623
R_Forearm  39.6511 3.79349 -3.1814
R_Hand  -0.550634 0.822219 -10.2836
L_Clavicle  -0.659874 20.2284 -2.11525
L_UpperArm  -5.0305 19.3857 33.0763
L_Forearm  5.13065 31.7351 37.0407
L_Hand  0.129611 3.13813 1.82998
L_Thigh  -0.674725 7.41691 -1.19732
L_Calf  -4.6523 2.27519 -17.2865
L_Foot  2.07689 10.0293 -1.30147
L_Toe0  -4.76886 0.29929 -3.11904
R_Thigh  4.45808 1.41716 -11.2491
R_Calf  -4.16308 4.91722 15.8464
R_Foot  0.0909603 3.05087 8.97861
R_Toe0  -1.78853 -0.272788 -17.3235
73
root  -3.44605 31.7125 -19.6722 92.6169 9.81015 88.587
Spine  1.85694 9.26174 -5.1042
Spine1  1.69573 1.85294 3.77077
Neck  3.97569e-016 0 -2.38542e-015
Head  8.68786 -7.51657 17.4365
R_Clavicle  0.456853 -10.8096 2.48099
R_UpperArm  25.6886 14.0308 2.11176
R_Forearm  33.7541 2.06723 -1.73958
R_Hand  -0.415085 3.55625 -11.6005
L_Clavicle  -0.655146 19.9112 -2.41959
L_UpperArm  -4.00496 20.7844 35.9864
L_Forearm  4.00953 30.5771 36.6977
L_Hand  0.238928 3.82567 3.04799
L_Thigh  -0.774119 6.21272 0.950694
L_Calf  -4.31921 1.14064 -8.80532
L_Foot  2.20951 10.0473 -0.857501
L_Toe0  -3.42339 0.181924 -3.90296
R_Thigh  5.10632 1.20572 -15.3296
R_Calf  -2.51065 6.61991 21.4278
R_Foot  0.190833 3.10324 8.09857
R_Toe0  -1.78875 -0.272856 -17.3257
74
root  -3.52154 32.2394 -18.5309 94.9447 8.77143 88.6663
Spine  3.2765 11.6506 -6.15993
Spine1  2.69661 -3.20896 1.70423
Neck  3.97569e-016 0 -2.38542e-015
Head  2.39874 -5.25672 20.1676
R_Clavicle  0.49121 -8.49271 2.70322
R_UpperArm  25.3158 16.2725 2.32856
R_Forearm  28.3215 -0.723721 0.583123
R_Hand  -0.391787 5.89226 -13.0817
L_Clavicle  -0.626502 19.2932 -2.54165
L_UpperArm  -4.03946 21.3864 39.1009
L_Forearm  1.65278 28.0318 35.7442
L_Hand  0.352437 4.52882 4.14715
L_Thigh  -0.758853 5.62116 2.11582
L_Calf  -2.37503 -0.383836 2.30171
L_Foot  1.95794 9.25313 -1.09153
L_Toe0  -0.966659 0.0508011 -5.3011
R_Thigh  7.27554 1.23031 -19.4035
R_Calf  -1.37282 8.39843 27.6258
R_Foot  0.164291 2.70262 6.80274
R_Toe0  -1.78844 -0.272761 -17.3227
75
root  -3.59496 32.6483 -17.3996 97.8167 7.8675 88.757
Spine  4.29447 13.2933 -7.21527
Spine1  3.52488 -7.36476 0.640783
Neck  3.97569e-016 0 -2.38542e-015
Head  -2.97258 -2.95474 21.0643
R_Clavicle  0.51365 -6.07696 2.78216
R_UpperArm  23.6139 18.7428 3.03655
R_Forearm  23.812 -4.4362 3.681
R_Hand  -0.436307 6.71633 -13.9262
L_Clavicle  -0.58304 18.491 -2.50188
L_UpperArm  -6.42796 20.9004 41.3119
L_Forearm  -0.343653 25.9602 34.1662
L_Hand  0.493652 5.11635 5.44753
L_Thigh  -0.0920345 4.85893 2.29081
L_Calf  -0.509646 -2.14894 15.3685
L_Foot  1.80383 9.15807 -1.56112
L_Toe0  0.649788 0.0320661 -6.2182
R_Thigh  9.96207 1.21448 -23.6875
R_Calf  -0.570134 10.514 33.8182
R_Foot  0.0332698 1.92693 5.35883
R_Toe0  -1.76136 -0.264307 -17.052
